Coordinates
version=1
nRows=6
nColumns=63
inDegrees=yes

Units are S.I. units (second, meters, Newtons, ...)
If the header above contains a line with 'inDegrees', this indicates whether rotational values are in degrees (yes) or radians (no).

endheader
time	pelvis_tilt	pelvis_list	pelvis_rotation	pelvis_tx	pelvis_ty	pelvis_tz	hip_flexion_r	hip_adduction_r	hip_rotation_r	knee_angle_r	knee_angle_r_beta	ankle_angle_r	subtalar_angle_r	mtp_angle_r	hip_flexion_l	hip_adduction_l	hip_rotation_l	knee_angle_l	knee_angle_l_beta	ankle_angle_l	subtalar_angle_l	mtp_angle_l	L5_S1_Flex_Ext	L5_S1_Lat_Bending	L5_S1_axial_rotation	L4_L5_Flex_Ext	L4_L5_Lat_Bending	L4_L5_axial_rotation	L3_L4_Flex_Ext	L3_L4_Lat_Bending	L3_L4_axial_rotation	L2_L3_Flex_Ext	L2_L3_Lat_Bending	L2_L3_axial_rotation	L1_L2_Flex_Ext	L1_L2_Lat_Bending	L1_L2_axial_rotation	L1_T12_Flex_Ext	L1_T12_Lat_Bending	L1_T12_axial_rotation	Abs_r3	Abs_r2	Abs_r1	Abs_t1	Abs_t2	neck_flexion	neck_bending	neck_rotation	arm_flex_r	arm_add_r	arm_rot_r	elbow_flex_r	pro_sup_r	wrist_flex_r	wrist_dev_r	arm_flex_l	arm_add_l	arm_rot_l	elbow_flex_l	pro_sup_l	wrist_flex_l	wrist_dev_l
      1.91525424	      0.48093802	     -3.54422314	     89.87118101	      0.25424287	      0.80549241	      0.70098724	      1.19888070	      4.24090299	     16.66273105	      4.71240784	      0.08224703	     37.23236458	    -16.34417375	      0.00000000	      0.98576326	     -2.94857469	      9.42785023	      3.88094005	      0.06773518	     41.41623641	      6.80978200	      0.00000000	      0.15739101	      0.05663897	      0.52956317	      0.29229084	      0.07532983	      0.56266087	      0.25857769	      0.13771198	      0.56266087	      0.17988219	      0.13771198	      0.46336777	      0.14615329	      0.11549818	      0.43027008	      0.08993322	      0.08773376	      0.39717238	      1.12422824	      0.64071132	      2.94527149	      0.00000000	      0.00000000	     28.24170980	     -1.50600352	     -3.95522615	      1.95723901	    -13.41136979	    112.23955449	     13.36255289	      5.89175143	     -5.76179170	     -8.03161980	      9.17578431	    -11.99648492	    148.04712640	     11.01094759	      7.63383278	     -8.29181393	     -7.28162667
      1.93220339	      0.64071949	     -3.80054876	     89.95243453	      0.25317020	      0.80553994	      0.70165434	      1.64165824	      4.33770943	     16.44315039	      4.81644124	      0.08406276	     37.39547643	    -16.15794199	      0.00000000	      1.21913839	     -3.06960111	      9.32022814	      3.64324605	      0.06358664	     41.28106891	      6.81327914	      0.00000000	      0.18476401	      0.09643925	      0.52147071	      0.34312524	      0.12826421	      0.55406262	      0.30354879	      0.23448240	      0.55406262	      0.21116679	      0.23448240	      0.45628687	      0.17157186	      0.19665893	      0.42369495	      0.10557416	      0.14938440	      0.39110303	      1.31975085	      1.09094012	      2.90026362	      0.00000000	      0.00000000	     28.26342771	     -1.59938741	     -3.20838977	      2.40559107	    -13.29197786	    116.25416052	     12.71014109	      5.70051528	     -5.61972291	     -8.21054886	      9.44532374	    -11.85090063	    147.22919389	     11.49040815	      7.78473300	     -7.56647792	     -7.21737251
      1.94915254	      0.80825858	     -4.04300446	     89.87048041	      0.25225465	      0.80552413	      0.70237099	      2.10288949	      4.45317054	     16.31936348	      4.99331917	      0.08714986	     37.48266921	    -16.01258615	      0.00000000	      1.38062207	     -3.18657050	      9.54427815	      3.34969299	      0.05846317	     40.99493706	      6.22079786	      0.00000000	      0.21351587	      0.14031668	      0.52234442	      0.39652031	      0.18662119	      0.55499094	      0.35078522	      0.34116599	      0.55499094	      0.24402728	      0.34116599	      0.45705137	      0.19827083	      0.28613378	      0.42440484	      0.12200297	      0.21735054	      0.39175831	      1.52512248	      1.58729040	      2.90512295	      0.00000000	      0.00000000	     28.28010716	     -1.36606943	     -1.89456815	      2.78067524	    -13.29576629	    119.10787923	     12.33519688	      5.56345434	     -5.24866767	     -8.37923925	      9.70477017	    -11.73305251	    145.87448577	     12.04570583	      7.83438475	     -6.62777534	     -6.97008495
      1.96610169	      0.96562256	     -4.22574592	     89.57986311	      0.25162592	      0.80547879	      0.70308909	      2.54486561	      4.58275099	     16.32918041	      5.30936803	      0.09266595	     37.50553739	    -15.95625381	      0.00000000	      1.42814311	     -3.30433830	      9.40246696	      3.04267286	      0.05310466	     40.71025253	      5.84990075	      0.00000000	      0.23542729	      0.18556964	      0.54045002	      0.43721201	      0.24680762	      0.57422814	      0.38678349	      0.45119401	      0.57422814	      0.26906985	      0.45119401	      0.47289377	      0.21861778	      0.37841360	      0.43911564	      0.13452315	      0.28744737	      0.40533751	      1.68163356	      2.09920084	      3.00582087	      0.00000000	      0.00000000	     28.29184394	     -1.02169922	     -0.26461213	      3.03976055	    -13.47822204	    119.76605363	     12.39668147	      5.67464166	     -4.63292481	     -8.31721063	     10.00122652	    -11.58154495	    144.61998502	     12.59954348	      7.82797767	     -5.56651133	     -6.53208428
      1.98305085	      1.12148530	     -4.33358583	     89.24203315	      0.25099369	      0.80539961	      0.70373758	      2.91022771	      4.71530487	     16.17715454	      5.70773782	      0.09961882	     37.46002134	    -15.82449343	      0.00000000	      1.37226336	     -3.40248825	     10.06194941	      2.73333949	      0.04770577	     40.28528396	      4.50765467	      0.00000000	      0.24837464	      0.23206089	      0.54031594	      0.46125655	      0.30864099	      0.57408569	      0.40805470	      0.56423285	      0.57408569	      0.28386738	      0.56423285	      0.47277645	      0.23064069	      0.47321857	      0.43900670	      0.14192127	      0.35946232	      0.40523695	      1.77411524	      2.62511922	      3.00507516	      0.00000000	      0.00000000	     28.29653159	     -0.57770631	      1.55519865	      3.24760476	    -13.76640305	    119.37692474	     12.75422735	      5.50114726	     -3.76257220	     -8.08758217	     10.24154242	    -11.35122878	    143.62680433	     12.98638041	      7.96185162	     -4.53038356	     -5.95806590
      2.00000000	      1.25626272	     -4.34173925	     88.93577499	      0.25037145	      0.80536149	      0.70424515	      3.15880623	      4.83627059	     15.98396804	      6.17404413	      0.10775740	     37.34115580	    -15.84980809	      0.00000000	      1.23114593	     -3.48190720	     10.42078774	      2.49898458	      0.04361551	     39.97043035	      3.62784500	      0.00000000	      0.24655119	      0.27516722	      0.51417271	      0.45787021	      0.36597240	      0.54630850	      0.40505895	      0.66904157	      0.54630850	      0.28178335	      0.66904157	      0.44990112	      0.22894743	      0.56112099	      0.41776532	      0.14087935	      0.42623402	      0.38562953	      1.76109049	      3.11274660	      2.85967434	      0.00000000	      0.00000000	     28.29509691	     -0.14928458	      3.32642352	      3.34044527	    -14.18329894	    117.10174980	     13.48007767	      5.74165236	     -2.87577816	     -7.36368959	     10.40806277	    -11.13629867	    142.33201303	     13.26419761	      8.54457314	     -3.56282545	     -5.36912254
